<?xml version="1.0" encoding="UTF-8" standalone="no"?>
<!DOCTYPE svg PUBLIC "-//W3C//DTD SVG 1.1//EN" "http://www.w3.org/Graphics/SVG/1.1/DTD/svg11.dtd">
<svg width="100%" height="100%" viewBox="0 0 58 58" version="1.1" xmlns="http://www.w3.org/2000/svg" xmlns:xlink="http://www.w3.org/1999/xlink" xml:space="preserve" style="fill-rule:evenodd;clip-rule:evenodd;stroke-linejoin:round;stroke-miterlimit:1.41421;">
    <g transform="matrix(1,0,0,1,-2.97638,-7.47632)">
        <g transform="matrix(0.137856,0,0,0.157549,0,0)">
            <g transform="matrix(0.937306,0,0,0.937306,12.702,16.5956)">
                <g transform="matrix(0.967608,0,0,0.846657,9.48217,32.3119)">
                    <path d="M228.14,0.721C166.181,0.721 158.412,0.982 134.079,2.093C109.795,3.202 93.211,7.059 78.7,12.698C63.697,18.527 50.975,26.329 38.292,39.012C25.609,51.695 17.808,64.419 11.978,79.42C6.337,93.933 2.481,110.516 1.373,134.799C0.262,159.132 0.001,166.9 0.001,228.859C0.001,290.82 0.262,298.588 1.373,322.921C2.481,347.204 6.337,363.788 11.978,378.3C17.808,393.302 25.609,406.026 38.292,418.709C50.975,431.392 63.697,439.193 78.7,445.023C93.211,450.662 109.795,454.518 134.079,455.627C158.412,456.737 166.181,457 228.14,457C290.099,457 297.869,456.737 322.202,455.627C346.485,454.518 363.069,450.662 377.58,445.023C392.583,439.193 405.305,431.392 417.988,418.709C430.671,406.026 438.472,393.302 444.302,378.3C449.943,363.788 453.799,347.204 454.907,322.921C456.018,298.588 456.279,290.82 456.279,228.859C456.279,166.9 456.018,159.132 454.907,134.799C453.799,110.516 449.943,93.933 444.302,79.42C438.472,64.419 430.671,51.695 417.988,39.012C405.305,26.329 392.583,18.527 377.58,12.698C363.069,7.059 346.485,3.202 322.202,2.093C297.869,0.982 290.099,0.721 228.14,0.721ZM228.14,41.826C289.056,41.826 296.27,42.059 320.328,43.156C342.571,44.171 354.651,47.888 362.69,51.012C373.34,55.151 380.94,60.095 388.922,68.077C396.907,76.062 401.851,83.66 405.988,94.309C409.111,102.348 412.829,114.429 413.844,136.671C414.941,160.729 415.174,167.943 415.174,228.859C415.174,289.777 414.941,296.991 413.844,321.047C412.829,343.291 409.111,355.372 405.988,363.411C401.851,374.059 396.907,381.659 388.922,389.643C380.94,397.626 373.34,402.57 362.69,406.708C354.651,409.832 342.571,413.55 320.328,414.563C296.274,415.662 289.061,415.893 228.14,415.893C167.219,415.893 160.006,415.662 135.952,414.563C113.71,413.55 101.629,409.832 93.59,406.708C82.94,402.57 75.34,397.626 67.358,389.643C59.375,381.659 54.431,374.059 50.292,363.411C47.169,355.372 43.451,343.291 42.436,321.047C41.339,296.991 41.106,289.777 41.106,228.859C41.106,167.943 41.339,160.729 42.436,136.671C43.451,114.429 47.169,102.348 50.292,94.309C54.431,83.66 59.375,76.062 67.358,68.077C75.34,60.095 82.94,55.151 93.59,51.012C101.629,47.888 113.71,44.171 135.952,43.156C160.01,42.059 167.224,41.826 228.14,41.826Z" style="fill:white;fill-rule:nonzero;"/>
                </g>
                <g transform="matrix(0.967608,0,0,0.846657,9.48217,32.3119)">
                    <path d="M228.14,304.906C186.141,304.906 152.093,270.859 152.093,228.859C152.093,186.86 186.141,152.813 228.14,152.813C270.14,152.813 304.187,186.86 304.187,228.859C304.187,270.859 270.14,304.906 228.14,304.906ZM228.14,111.707C163.439,111.707 110.988,164.159 110.988,228.859C110.988,293.562 163.439,346.012 228.14,346.012C292.841,346.012 345.292,293.562 345.292,228.859C345.292,164.159 292.841,111.707 228.14,111.707Z" style="fill:white;fill-rule:nonzero;"/>
                </g>
                <g transform="matrix(0.967608,0,0,0.846657,9.48217,32.3119)">
                    <path d="M377.299,107.078C377.299,122.197 365.042,134.455 349.922,134.455C334.803,134.455 322.545,122.197 322.545,107.078C322.545,91.958 334.803,79.702 349.922,79.702C365.042,79.702 377.299,91.958 377.299,107.078Z" style="fill:white;fill-rule:nonzero;"/>
                </g>
            </g>
        </g>
    </g>
</svg>
