<?xml version="1.0" encoding="UTF-8" standalone="no"?>
<!DOCTYPE svg PUBLIC "-//W3C//DTD SVG 1.1//EN" "http://www.w3.org/Graphics/SVG/1.1/DTD/svg11.dtd">
<svg width="100%" height="100%" viewBox="0 0 174 65" version="1.1" xmlns="http://www.w3.org/2000/svg" xmlns:xlink="http://www.w3.org/1999/xlink" xml:space="preserve" style="fill-rule:evenodd;clip-rule:evenodd;stroke-linejoin:round;stroke-miterlimit:1.41421;">
    <g transform="matrix(1,0,0,1,-41.3057,-10.9912)">
        <g transform="matrix(-1,0,0,-0.48673,233.953,93.9321)">
            <path d="M31.332,170.388C31.184,170.371 31.035,170.361 30.887,170.339C30.59,170.295 30.294,170.23 30,170.143C28.969,169.838 27.957,169.268 26.995,168.449C25.344,167.045 23.847,164.909 22.63,162.222C21.412,159.536 20.482,156.315 19.918,152.833C19.636,151.093 19.445,149.291 19.35,147.468C19.318,146.86 19.297,146.25 19.286,145.639C19.281,145.334 19.281,145.028 19.278,144.723L19.278,62.779C19.281,62.474 19.281,62.168 19.286,61.863C19.302,60.946 19.342,60.032 19.406,59.124C19.617,56.098 20.094,53.155 20.807,50.471C21.449,48.057 22.281,45.858 23.261,43.983C24.568,41.482 26.136,39.571 27.831,38.412C29.526,37.253 31.338,36.852 33.115,37.245C34.298,37.506 35.462,38.117 36.562,39.052C37.937,40.222 39.207,41.9 40.296,43.983C41.494,46.275 42.469,49.051 43.149,52.111C43.643,54.335 43.982,56.704 44.151,59.124C44.215,60.032 44.255,60.946 44.27,61.863C44.276,62.168 44.276,62.474 44.278,62.779L44.278,144.723C44.276,145.028 44.276,145.334 44.27,145.639C44.26,146.25 44.239,146.86 44.207,147.468C44.096,149.595 43.854,151.693 43.49,153.697C42.866,157.136 41.88,160.287 40.617,162.882C39.248,165.694 37.563,167.834 35.726,169.09C34.879,169.669 34.002,170.061 33.115,170.257C32.819,170.322 32.522,170.366 32.225,170.388C32.076,170.399 31.927,170.399 31.778,170.404C31.63,170.399 31.481,170.393 31.332,170.388Z" style="fill:white;fill-rule:nonzero;"/>
        </g>
        <g transform="matrix(-1,0,0,0.00943013,207.117,62.0108)">
            <path d="M31.716,-1262.74C30.015,-1261.4 28.325,-1223.9 26.766,-1151.53C25.419,-1088.98 24.178,-1001.07 23.117,-892.968C22.056,-784.872 21.179,-656.901 20.536,-516.587C19.711,-336.626 19.279,-137.299 19.278,62.779C19.278,109.825 19.271,156.974 19.291,204.005C19.317,265.442 19.383,326.685 19.489,387.147C19.728,523.218 20.169,655.173 20.791,776.829C21.414,898.484 22.216,1009.62 23.162,1105.02C24.258,1215.59 25.543,1304.7 26.938,1366.82C28.39,1431.5 29.955,1466.68 31.53,1470C33.208,1473.54 34.89,1440.83 36.447,1374.34C37.85,1314.43 39.148,1227.37 40.259,1118.54C41.233,1023.15 42.062,911.296 42.706,788.381C43.35,665.465 43.807,531.726 44.056,393.621C44.169,331.059 44.239,267.636 44.266,204.005C44.286,156.974 44.279,109.825 44.278,62.779C44.278,-137.299 43.846,-336.626 43.021,-516.587C42.387,-654.922 41.525,-781.27 40.484,-888.391C39.444,-995.513 38.227,-1083.12 36.904,-1146.19C35.447,-1215.67 33.871,-1254.56 32.275,-1261.71C32.089,-1262.45 31.903,-1262.79 31.716,-1262.74Z" style="fill:white;fill-rule:nonzero;"/>
        </g>
        <g transform="matrix(1,0,0,0.48673,22.0273,-7.06531)">
            <path d="M32.225,37.114C32.373,37.13 32.522,37.141 32.67,37.163C32.967,37.207 33.263,37.272 33.557,37.359C34.588,37.663 35.6,38.234 36.562,39.052C38.212,40.457 39.71,42.593 40.927,45.279C42.144,47.965 43.075,51.186 43.639,54.669C43.921,56.409 44.111,58.211 44.207,60.034C44.239,60.642 44.26,61.252 44.27,61.863C44.276,62.168 44.276,62.474 44.278,62.779L44.278,144.723C44.276,145.028 44.276,145.334 44.27,145.639C44.255,146.555 44.215,147.47 44.151,148.377C43.939,151.404 43.463,154.347 42.749,157.03C42.108,159.445 41.276,161.644 40.296,163.519C38.989,166.02 37.421,167.931 35.726,169.09C34.031,170.249 32.218,170.649 30.442,170.257C29.259,169.996 28.095,169.385 26.995,168.449C25.62,167.279 24.35,165.602 23.261,163.519C22.062,161.227 21.088,158.451 20.408,155.391C19.914,153.167 19.575,150.798 19.406,148.377C19.342,147.47 19.302,146.555 19.286,145.639C19.281,145.334 19.281,145.028 19.278,144.723L19.278,62.779C19.281,62.474 19.281,62.168 19.286,61.863C19.297,61.252 19.318,60.642 19.35,60.034C19.445,58.211 19.636,56.409 19.918,54.669C20.529,50.895 21.571,47.432 22.94,44.62C24.203,42.024 25.736,39.999 27.41,38.717C28.386,37.969 29.407,37.473 30.442,37.245C30.738,37.179 31.035,37.136 31.332,37.114C31.481,37.103 31.63,37.103 31.778,37.098C31.927,37.103 32.076,37.108 32.225,37.114Z" style="fill:white;fill-rule:nonzero;"/>
        </g>
        <g transform="matrix(1,0,0,-0.00943013,48.863,24.856)">
            <path d="M31.841,1470.25C33.542,1468.9 35.232,1431.4 36.791,1359.03C38.138,1296.48 39.379,1208.57 40.44,1100.47C41.501,992.374 42.378,864.402 43.021,724.089C43.846,544.128 44.278,344.8 44.278,144.722C44.279,97.677 44.286,50.528 44.266,3.497C44.24,-57.94 44.174,-119.183 44.068,-179.645C43.829,-315.717 43.388,-447.672 42.766,-569.327C42.143,-690.983 41.34,-802.117 40.395,-897.522C39.299,-1008.09 38.014,-1097.2 36.619,-1159.32C35.167,-1224 33.602,-1259.18 32.027,-1262.5C30.349,-1266.04 28.667,-1233.33 27.11,-1166.84C25.707,-1106.93 24.409,-1019.87 23.298,-911.041C22.324,-815.649 21.495,-703.795 20.851,-580.879C20.207,-457.963 19.75,-324.224 19.501,-186.12C19.388,-123.558 19.318,-60.135 19.291,3.497C19.271,50.528 19.278,97.677 19.278,144.722C19.279,344.8 19.711,544.128 20.536,724.089C21.17,862.423 22.032,988.771 23.072,1095.89C24.113,1203.01 25.33,1290.62 26.653,1353.69C28.11,1423.17 29.686,1462.06 31.281,1469.21C31.468,1469.95 31.654,1470.29 31.841,1470.25Z" style="fill:white;fill-rule:nonzero;"/>
        </g>
        <g transform="matrix(-1,0,0,0.200969,173.186,22.5827)">
            <path d="M31.506,5.751C31.142,5.816 30.779,5.923 30.417,6.138C29.514,6.676 28.624,7.75 27.772,9.332C26.237,12.181 24.831,16.678 23.672,22.443C22.449,28.529 21.511,35.988 20.945,44.122C20.647,48.399 20.453,52.851 20.366,57.357C20.332,59.162 20.319,60.967 20.314,62.779L20.314,144.723C20.32,146.989 20.341,149.243 20.395,151.495C20.525,156.888 20.81,162.185 21.24,167.178C21.67,172.171 22.243,176.854 22.938,181.042C23.691,185.58 24.586,189.53 25.58,192.711C26.652,196.138 27.838,198.664 29.076,200.159C30.225,201.546 31.417,202.041 32.596,201.621C33.867,201.169 35.12,199.656 36.291,197.161C37.546,194.488 38.702,190.694 39.69,186.007C40.743,181.008 41.602,175.009 42.207,168.42C42.698,163.067 43.021,157.338 43.161,151.495C43.216,149.243 43.237,146.989 43.243,144.723L43.243,62.779C43.238,60.967 43.225,59.162 43.191,57.357C43.104,52.851 42.909,48.399 42.612,44.122C42.076,36.418 41.206,29.314 40.075,23.414C38.882,17.185 37.405,12.339 35.785,9.332C34.933,7.75 34.043,6.676 33.139,6.138C32.778,5.923 32.415,5.816 32.051,5.751C31.778,5.735 31.778,5.735 31.506,5.751Z" style="fill:white;fill-rule:nonzero;"/>
        </g>
        <g transform="matrix(-1,0,0,-0.00943013,146.351,44.4118)">
            <path d="M31.716,1470.25C30.015,1468.9 28.325,1431.4 26.766,1359.03C25.419,1296.48 24.178,1208.57 23.117,1100.47C22.056,992.374 21.179,864.402 20.536,724.089C19.711,544.128 19.279,344.801 19.278,144.723C19.278,97.677 19.271,50.528 19.291,3.497C19.317,-57.94 19.383,-119.183 19.489,-179.645C19.728,-315.716 20.169,-447.672 20.791,-569.327C21.414,-690.983 22.216,-802.117 23.162,-897.522C24.258,-1008.09 25.543,-1097.2 26.938,-1159.32C28.39,-1224 29.955,-1259.18 31.53,-1262.5C33.208,-1266.04 34.89,-1233.33 36.447,-1166.84C37.85,-1106.93 39.148,-1019.87 40.259,-911.041C41.233,-815.649 42.062,-703.795 42.706,-580.879C43.35,-457.963 43.807,-324.224 44.056,-186.12C44.169,-123.557 44.239,-60.134 44.266,3.497C44.286,50.528 44.279,97.677 44.278,144.723C44.278,344.801 43.846,544.128 43.021,724.089C42.387,862.423 41.525,988.771 40.484,1095.89C39.444,1203.01 38.227,1290.62 36.904,1353.69C35.447,1423.17 33.871,1462.06 32.275,1469.21C32.089,1469.95 31.903,1470.29 31.716,1470.25Z" style="fill:white;fill-rule:nonzero;"/>
        </g>
    </g>
</svg>
