<?xml version="1.0" encoding="UTF-8" standalone="no"?><!DOCTYPE svg PUBLIC "-//W3C//DTD SVG 1.1//EN" "http://www.w3.org/Graphics/SVG/1.1/DTD/svg11.dtd"><svg width="100%" height="100%" viewBox="0 0 42 16" version="1.1" xmlns="http://www.w3.org/2000/svg" xmlns:xlink="http://www.w3.org/1999/xlink" xml:space="preserve" style="fill-rule:evenodd;clip-rule:evenodd;stroke-linejoin:round;stroke-miterlimit:1.41421;"><g><path d="M38.791,0.24c0.036,0.002 0.072,0.003 0.107,0.006c0.071,0.005 0.142,0.012 0.213,0.022c0.248,0.036 0.49,0.103 0.721,0.198c0.396,0.164 0.756,0.414 1.048,0.728c0.292,0.313 0.515,0.69 0.651,1.096c0.067,0.204 0.113,0.414 0.136,0.627c0.008,0.071 0.013,0.142 0.015,0.214c0.002,0.035 0.002,0.071 0.002,0.107l0,9.572c0,0.036 0,0.072 -0.002,0.107c-0.004,0.107 -0.013,0.214 -0.028,0.32c-0.051,0.354 -0.166,0.697 -0.337,1.011c-0.154,0.282 -0.353,0.539 -0.589,0.758c-0.313,0.292 -0.69,0.515 -1.096,0.651c-0.407,0.135 -0.842,0.182 -1.268,0.136c-0.284,-0.031 -0.564,-0.102 -0.828,-0.211c-0.33,-0.137 -0.635,-0.333 -0.896,-0.576c-0.288,-0.268 -0.521,-0.592 -0.685,-0.95c-0.118,-0.259 -0.2,-0.536 -0.24,-0.819c-0.016,-0.106 -0.025,-0.213 -0.029,-0.32c-0.001,-0.035 -0.001,-0.071 -0.002,-0.107l0,-9.572c0.001,-0.036 0.001,-0.072 0.002,-0.107c0.003,-0.072 0.008,-0.143 0.015,-0.214c0.027,-0.248 0.085,-0.493 0.172,-0.728c0.15,-0.401 0.387,-0.769 0.69,-1.072c0.328,-0.329 0.733,-0.579 1.174,-0.726c0.203,-0.067 0.414,-0.113 0.627,-0.136c0.071,-0.008 0.142,-0.013 0.213,-0.015c0.036,-0.001 0.072,-0.001 0.107,-0.002c0.036,0.001 0.072,0.001 0.107,0.002Z" style="fill:#c42c2a;fill-rule:nonzero;"/><path d="M32.259,9.625c0.408,0.003 0.813,0.088 1.188,0.251c0.323,0.142 0.621,0.341 0.875,0.586c0.255,0.244 0.466,0.534 0.62,0.851c0.198,0.408 0.302,0.859 0.302,1.312c0,0.106 0.001,0.213 -0.003,0.319c-0.007,0.139 -0.023,0.278 -0.048,0.415c-0.057,0.308 -0.163,0.606 -0.312,0.882c-0.15,0.275 -0.342,0.527 -0.569,0.743c-0.263,0.25 -0.572,0.451 -0.907,0.592c-0.348,0.146 -0.724,0.226 -1.102,0.234c-0.403,0.008 -0.806,-0.066 -1.18,-0.217c-0.337,-0.136 -0.648,-0.333 -0.915,-0.579c-0.233,-0.216 -0.432,-0.469 -0.587,-0.747c-0.154,-0.278 -0.264,-0.581 -0.324,-0.894c-0.027,-0.141 -0.044,-0.285 -0.05,-0.429c-0.005,-0.106 -0.003,-0.213 -0.003,-0.319c0,-0.453 0.103,-0.904 0.301,-1.312c0.153,-0.313 0.359,-0.599 0.609,-0.841c0.25,-0.242 0.542,-0.441 0.859,-0.583c0.35,-0.158 0.728,-0.246 1.111,-0.262c0.045,-0.002 0.09,-0.002 0.135,-0.002Z" style="fill:#c42c2a;fill-rule:nonzero;"/><path d="M3.183,0.24c0.036,0.002 0.071,0.003 0.107,0.006c0.071,0.005 0.142,0.012 0.213,0.022c0.247,0.036 0.49,0.103 0.721,0.198c0.396,0.164 0.755,0.414 1.047,0.728c0.293,0.313 0.516,0.69 0.651,1.096c0.068,0.204 0.114,0.414 0.137,0.627c0.007,0.071 0.012,0.142 0.015,0.214c0.001,0.035 0.001,0.071 0.002,0.107l0,9.572c-0.001,0.036 -0.001,0.072 -0.002,0.107c-0.004,0.107 -0.013,0.214 -0.029,0.32c-0.051,0.354 -0.165,0.697 -0.336,1.011c-0.154,0.282 -0.354,0.539 -0.589,0.758c-0.314,0.292 -0.69,0.515 -1.097,0.651c-0.407,0.135 -0.842,0.182 -1.268,0.136c-0.284,-0.031 -0.563,-0.102 -0.827,-0.211c-0.33,-0.137 -0.635,-0.333 -0.896,-0.576c-0.288,-0.268 -0.522,-0.592 -0.685,-0.95c-0.119,-0.259 -0.2,-0.536 -0.241,-0.819c-0.015,-0.106 -0.024,-0.213 -0.028,-0.32c-0.002,-0.035 -0.002,-0.071 -0.002,-0.107l0,-9.572c0,-0.036 0,-0.072 0.002,-0.107c0.002,-0.072 0.007,-0.143 0.015,-0.214c0.023,-0.213 0.069,-0.423 0.136,-0.627c0.147,-0.44 0.397,-0.845 0.725,-1.173c0.304,-0.304 0.672,-0.54 1.073,-0.69c0.235,-0.087 0.48,-0.145 0.728,-0.172c0.071,-0.008 0.142,-0.013 0.214,-0.015c0.035,-0.001 0.071,-0.001 0.107,-0.002c0.035,0.001 0.071,0.001 0.107,0.002Z" style="fill:#006eb3;fill-rule:nonzero;"/><path d="M9.531,0.238c0.409,0.003 0.814,0.088 1.188,0.252c0.324,0.141 0.622,0.34 0.876,0.585c0.255,0.244 0.465,0.534 0.62,0.852c0.198,0.407 0.301,0.858 0.301,1.311c0,0.106 0.002,0.213 -0.003,0.32c-0.006,0.139 -0.022,0.277 -0.047,0.414c-0.058,0.308 -0.163,0.607 -0.313,0.882c-0.149,0.275 -0.342,0.527 -0.569,0.743c-0.263,0.25 -0.571,0.452 -0.906,0.592c-0.348,0.147 -0.724,0.226 -1.102,0.234c-0.403,0.008 -0.806,-0.066 -1.18,-0.217c-0.337,-0.135 -0.648,-0.332 -0.915,-0.579c-0.234,-0.216 -0.433,-0.469 -0.587,-0.747c-0.155,-0.278 -0.265,-0.581 -0.324,-0.893c-0.027,-0.142 -0.044,-0.285 -0.051,-0.429c-0.004,-0.107 -0.003,-0.214 -0.003,-0.32c0,-0.453 0.104,-0.904 0.302,-1.311c0.152,-0.313 0.359,-0.599 0.609,-0.842c0.25,-0.242 0.542,-0.441 0.859,-0.583c0.35,-0.158 0.728,-0.246 1.111,-0.262c0.045,-0.001 0.09,-0.002 0.134,-0.002Z" style="fill:#006eb3;fill-rule:nonzero;"/><path d="M24.166,3.297c0.087,0.003 0.174,0.009 0.261,0.019c0.217,0.026 0.43,0.078 0.635,0.154c0.368,0.137 0.706,0.354 0.984,0.632c0.293,0.294 0.519,0.654 0.654,1.046c0.072,0.206 0.118,0.421 0.139,0.638c0.009,0.087 0.012,0.174 0.013,0.262l0,3.952c-0.002,0.109 -0.007,0.218 -0.02,0.327c-0.031,0.26 -0.099,0.515 -0.202,0.756c-0.104,0.241 -0.241,0.467 -0.408,0.669c-0.181,0.219 -0.395,0.409 -0.634,0.563c-0.257,0.165 -0.542,0.287 -0.839,0.359c-0.276,0.067 -0.562,0.091 -0.845,0.071c-0.305,-0.022 -0.606,-0.095 -0.887,-0.216c-0.301,-0.129 -0.578,-0.312 -0.815,-0.538c-0.253,-0.241 -0.459,-0.53 -0.604,-0.848c-0.118,-0.258 -0.196,-0.534 -0.23,-0.816c-0.013,-0.109 -0.018,-0.218 -0.019,-0.327l0,-3.952c0.001,-0.088 0.004,-0.175 0.012,-0.262c0.021,-0.217 0.068,-0.432 0.139,-0.638c0.129,-0.372 0.338,-0.714 0.609,-0.999c0.286,-0.3 0.641,-0.534 1.03,-0.679c0.204,-0.076 0.418,-0.128 0.635,-0.154c0.086,-0.01 0.173,-0.016 0.261,-0.019c0.065,-0.001 0.065,-0.001 0.131,0Z" style="fill:#eda715;fill-rule:nonzero;"/><path d="M17.675,4.931c0.408,0.003 0.813,0.088 1.188,0.252c0.323,0.142 0.621,0.341 0.875,0.585c0.255,0.245 0.466,0.534 0.62,0.852c0.198,0.407 0.302,0.858 0.302,1.311c0,0.107 0.001,0.213 -0.003,0.32c-0.007,0.139 -0.022,0.278 -0.048,0.414c-0.057,0.308 -0.163,0.607 -0.312,0.882c-0.15,0.276 -0.342,0.527 -0.569,0.743c-0.263,0.25 -0.572,0.452 -0.906,0.593c-0.349,0.146 -0.725,0.226 -1.103,0.233c-0.402,0.008 -0.806,-0.066 -1.18,-0.216c-0.336,-0.136 -0.648,-0.333 -0.915,-0.579c-0.233,-0.216 -0.432,-0.469 -0.587,-0.748c-0.154,-0.278 -0.264,-0.58 -0.324,-0.893c-0.027,-0.142 -0.044,-0.285 -0.05,-0.429c-0.005,-0.107 -0.003,-0.213 -0.003,-0.32c0,-0.453 0.104,-0.904 0.301,-1.311c0.153,-0.313 0.359,-0.599 0.609,-0.841c0.25,-0.243 0.542,-0.441 0.86,-0.584c0.349,-0.157 0.727,-0.245 1.11,-0.261c0.045,-0.002 0.09,-0.003 0.135,-0.003Z" style="fill:#eda715;fill-rule:nonzero;"/></g></svg>